<mxfile host="app.diagrams.net" modified="2023-08-02T21:37:48.403Z" agent="Mozilla/5.0 (Windows NT 10.0; Win64; x64) AppleWebKit/537.36 (KHTML, like Gecko) Chrome/115.0.0.0 Safari/537.36" etag="ik50LtiBQxTvZGP7P0Ks" version="21.6.5" type="device">
  <diagram name="Page-1" id="6IzOGxR9PSqKDzpqtdA6">
    <mxGraphModel dx="880" dy="1546" grid="1" gridSize="10" guides="1" tooltips="1" connect="1" arrows="1" fold="1" page="1" pageScale="1" pageWidth="850" pageHeight="1100" math="0" shadow="0">
      <root>
        <mxCell id="0" />
        <mxCell id="1" parent="0" />
        <mxCell id="spTVyyW4fHagzauWtHll-5" value="" style="edgeStyle=orthogonalEdgeStyle;rounded=0;orthogonalLoop=1;jettySize=auto;html=1;" edge="1" parent="1" source="spTVyyW4fHagzauWtHll-1" target="spTVyyW4fHagzauWtHll-4">
          <mxGeometry relative="1" as="geometry" />
        </mxCell>
        <mxCell id="spTVyyW4fHagzauWtHll-1" value="Start" style="ellipse;whiteSpace=wrap;html=1;fillColor=#f8cecc;strokeColor=#b85450;" vertex="1" parent="1">
          <mxGeometry x="100" y="-300" width="120" height="80" as="geometry" />
        </mxCell>
        <mxCell id="spTVyyW4fHagzauWtHll-40" value="" style="edgeStyle=orthogonalEdgeStyle;rounded=0;orthogonalLoop=1;jettySize=auto;html=1;" edge="1" parent="1" source="spTVyyW4fHagzauWtHll-4" target="spTVyyW4fHagzauWtHll-39">
          <mxGeometry relative="1" as="geometry" />
        </mxCell>
        <mxCell id="spTVyyW4fHagzauWtHll-4" value="Add name" style="rounded=1;whiteSpace=wrap;html=1;fillColor=#dae8fc;strokeColor=#6c8ebf;" vertex="1" parent="1">
          <mxGeometry x="100" y="-170" width="120" height="60" as="geometry" />
        </mxCell>
        <mxCell id="spTVyyW4fHagzauWtHll-9" value="" style="edgeStyle=orthogonalEdgeStyle;rounded=0;orthogonalLoop=1;jettySize=auto;html=1;" edge="1" parent="1" source="spTVyyW4fHagzauWtHll-6" target="spTVyyW4fHagzauWtHll-8">
          <mxGeometry relative="1" as="geometry" />
        </mxCell>
        <mxCell id="spTVyyW4fHagzauWtHll-11" value="" style="edgeStyle=orthogonalEdgeStyle;rounded=0;orthogonalLoop=1;jettySize=auto;html=1;" edge="1" parent="1" source="spTVyyW4fHagzauWtHll-6" target="spTVyyW4fHagzauWtHll-10">
          <mxGeometry relative="1" as="geometry" />
        </mxCell>
        <mxCell id="spTVyyW4fHagzauWtHll-6" value="Add additional info?" style="rhombus;whiteSpace=wrap;html=1;fillColor=#fff2cc;strokeColor=#d6b656;" vertex="1" parent="1">
          <mxGeometry x="100" y="280" width="120" height="80" as="geometry" />
        </mxCell>
        <mxCell id="spTVyyW4fHagzauWtHll-15" style="edgeStyle=orthogonalEdgeStyle;rounded=0;orthogonalLoop=1;jettySize=auto;html=1;" edge="1" parent="1" source="spTVyyW4fHagzauWtHll-8">
          <mxGeometry relative="1" as="geometry">
            <mxPoint x="430" y="320" as="targetPoint" />
          </mxGeometry>
        </mxCell>
        <mxCell id="spTVyyW4fHagzauWtHll-8" value="Provide email or phone number" style="rounded=1;whiteSpace=wrap;html=1;fillColor=#dae8fc;strokeColor=#6c8ebf;" vertex="1" parent="1">
          <mxGeometry x="100" y="400" width="120" height="60" as="geometry" />
        </mxCell>
        <mxCell id="spTVyyW4fHagzauWtHll-13" value="" style="edgeStyle=orthogonalEdgeStyle;rounded=0;orthogonalLoop=1;jettySize=auto;html=1;" edge="1" parent="1" source="spTVyyW4fHagzauWtHll-10" target="spTVyyW4fHagzauWtHll-12">
          <mxGeometry relative="1" as="geometry" />
        </mxCell>
        <mxCell id="spTVyyW4fHagzauWtHll-10" value="Experience and education" style="rounded=1;whiteSpace=wrap;html=1;fillColor=#dae8fc;strokeColor=#6c8ebf;" vertex="1" parent="1">
          <mxGeometry x="280" y="290" width="120" height="60" as="geometry" />
        </mxCell>
        <mxCell id="spTVyyW4fHagzauWtHll-17" value="" style="edgeStyle=orthogonalEdgeStyle;rounded=0;orthogonalLoop=1;jettySize=auto;html=1;entryX=1;entryY=0.5;entryDx=0;entryDy=0;" edge="1" parent="1" source="spTVyyW4fHagzauWtHll-12" target="spTVyyW4fHagzauWtHll-20">
          <mxGeometry relative="1" as="geometry">
            <mxPoint x="640" y="320" as="targetPoint" />
            <Array as="points">
              <mxPoint x="630" y="320" />
              <mxPoint x="630" y="550" />
            </Array>
          </mxGeometry>
        </mxCell>
        <mxCell id="spTVyyW4fHagzauWtHll-19" value="" style="edgeStyle=orthogonalEdgeStyle;rounded=0;orthogonalLoop=1;jettySize=auto;html=1;" edge="1" parent="1" source="spTVyyW4fHagzauWtHll-12" target="spTVyyW4fHagzauWtHll-18">
          <mxGeometry relative="1" as="geometry" />
        </mxCell>
        <mxCell id="spTVyyW4fHagzauWtHll-12" value="Profile summary?" style="rhombus;whiteSpace=wrap;html=1;fillColor=#fff2cc;strokeColor=#d6b656;" vertex="1" parent="1">
          <mxGeometry x="460" y="280" width="120" height="80" as="geometry" />
        </mxCell>
        <mxCell id="spTVyyW4fHagzauWtHll-21" value="" style="edgeStyle=orthogonalEdgeStyle;rounded=0;orthogonalLoop=1;jettySize=auto;html=1;" edge="1" parent="1" source="spTVyyW4fHagzauWtHll-18" target="spTVyyW4fHagzauWtHll-20">
          <mxGeometry relative="1" as="geometry" />
        </mxCell>
        <mxCell id="spTVyyW4fHagzauWtHll-18" value="Add profile summary" style="rounded=1;whiteSpace=wrap;html=1;fillColor=#dae8fc;strokeColor=#6c8ebf;" vertex="1" parent="1">
          <mxGeometry x="460" y="410" width="120" height="60" as="geometry" />
        </mxCell>
        <mxCell id="spTVyyW4fHagzauWtHll-23" value="" style="edgeStyle=orthogonalEdgeStyle;rounded=0;orthogonalLoop=1;jettySize=auto;html=1;" edge="1" parent="1" source="spTVyyW4fHagzauWtHll-20" target="spTVyyW4fHagzauWtHll-22">
          <mxGeometry relative="1" as="geometry" />
        </mxCell>
        <mxCell id="spTVyyW4fHagzauWtHll-20" value="Skills and endorsementts" style="whiteSpace=wrap;html=1;rounded=1;fillColor=#dae8fc;strokeColor=#6c8ebf;" vertex="1" parent="1">
          <mxGeometry x="460" y="520" width="120" height="60" as="geometry" />
        </mxCell>
        <mxCell id="spTVyyW4fHagzauWtHll-25" value="" style="edgeStyle=orthogonalEdgeStyle;rounded=0;orthogonalLoop=1;jettySize=auto;html=1;" edge="1" parent="1" source="spTVyyW4fHagzauWtHll-22" target="spTVyyW4fHagzauWtHll-24">
          <mxGeometry relative="1" as="geometry" />
        </mxCell>
        <mxCell id="spTVyyW4fHagzauWtHll-27" value="" style="edgeStyle=orthogonalEdgeStyle;rounded=0;orthogonalLoop=1;jettySize=auto;html=1;" edge="1" parent="1" source="spTVyyW4fHagzauWtHll-22" target="spTVyyW4fHagzauWtHll-26">
          <mxGeometry relative="1" as="geometry" />
        </mxCell>
        <mxCell id="spTVyyW4fHagzauWtHll-22" value="Minimum one endorsement" style="rhombus;whiteSpace=wrap;html=1;fillColor=#fff2cc;strokeColor=#d6b656;" vertex="1" parent="1">
          <mxGeometry x="460" y="630" width="120" height="80" as="geometry" />
        </mxCell>
        <mxCell id="spTVyyW4fHagzauWtHll-30" value="" style="edgeStyle=orthogonalEdgeStyle;rounded=0;orthogonalLoop=1;jettySize=auto;html=1;" edge="1" parent="1" source="spTVyyW4fHagzauWtHll-24" target="spTVyyW4fHagzauWtHll-29">
          <mxGeometry relative="1" as="geometry" />
        </mxCell>
        <mxCell id="spTVyyW4fHagzauWtHll-24" value="Recommendations" style="whiteSpace=wrap;html=1;rounded=1;fillColor=#dae8fc;strokeColor=#6c8ebf;" vertex="1" parent="1">
          <mxGeometry x="460" y="760" width="120" height="60" as="geometry" />
        </mxCell>
        <mxCell id="spTVyyW4fHagzauWtHll-28" style="edgeStyle=orthogonalEdgeStyle;rounded=0;orthogonalLoop=1;jettySize=auto;html=1;entryX=1;entryY=0.5;entryDx=0;entryDy=0;" edge="1" parent="1" source="spTVyyW4fHagzauWtHll-26" target="spTVyyW4fHagzauWtHll-24">
          <mxGeometry relative="1" as="geometry">
            <Array as="points">
              <mxPoint x="690" y="790" />
            </Array>
          </mxGeometry>
        </mxCell>
        <mxCell id="spTVyyW4fHagzauWtHll-26" value="Get endoresement" style="whiteSpace=wrap;html=1;rounded=1;fillColor=#dae8fc;strokeColor=#6c8ebf;" vertex="1" parent="1">
          <mxGeometry x="630" y="640" width="120" height="60" as="geometry" />
        </mxCell>
        <mxCell id="spTVyyW4fHagzauWtHll-32" value="" style="edgeStyle=orthogonalEdgeStyle;rounded=0;orthogonalLoop=1;jettySize=auto;html=1;" edge="1" parent="1" source="spTVyyW4fHagzauWtHll-29" target="spTVyyW4fHagzauWtHll-31">
          <mxGeometry relative="1" as="geometry" />
        </mxCell>
        <mxCell id="spTVyyW4fHagzauWtHll-29" value="Certifications, voluntary experience" style="whiteSpace=wrap;html=1;rounded=1;fillColor=#dae8fc;strokeColor=#6c8ebf;" vertex="1" parent="1">
          <mxGeometry x="460" y="870" width="120" height="60" as="geometry" />
        </mxCell>
        <mxCell id="spTVyyW4fHagzauWtHll-33" style="edgeStyle=orthogonalEdgeStyle;rounded=0;orthogonalLoop=1;jettySize=auto;html=1;entryX=1;entryY=0.5;entryDx=0;entryDy=0;" edge="1" parent="1" source="spTVyyW4fHagzauWtHll-31" target="spTVyyW4fHagzauWtHll-29">
          <mxGeometry relative="1" as="geometry">
            <Array as="points">
              <mxPoint x="690" y="1020" />
              <mxPoint x="690" y="900" />
            </Array>
          </mxGeometry>
        </mxCell>
        <mxCell id="spTVyyW4fHagzauWtHll-35" value="" style="edgeStyle=orthogonalEdgeStyle;rounded=0;orthogonalLoop=1;jettySize=auto;html=1;" edge="1" parent="1" source="spTVyyW4fHagzauWtHll-31" target="spTVyyW4fHagzauWtHll-34">
          <mxGeometry relative="1" as="geometry" />
        </mxCell>
        <mxCell id="spTVyyW4fHagzauWtHll-31" value="All sections completed?" style="rhombus;whiteSpace=wrap;html=1;fillColor=#fff2cc;strokeColor=#d6b656;" vertex="1" parent="1">
          <mxGeometry x="460" y="980" width="120" height="80" as="geometry" />
        </mxCell>
        <mxCell id="spTVyyW4fHagzauWtHll-38" value="" style="edgeStyle=orthogonalEdgeStyle;rounded=0;orthogonalLoop=1;jettySize=auto;html=1;" edge="1" parent="1" source="spTVyyW4fHagzauWtHll-34" target="spTVyyW4fHagzauWtHll-37">
          <mxGeometry relative="1" as="geometry" />
        </mxCell>
        <mxCell id="spTVyyW4fHagzauWtHll-34" value="Profile completed" style="whiteSpace=wrap;html=1;rounded=1;fillColor=#dae8fc;strokeColor=#6c8ebf;" vertex="1" parent="1">
          <mxGeometry x="460" y="1110" width="120" height="60" as="geometry" />
        </mxCell>
        <mxCell id="spTVyyW4fHagzauWtHll-37" value="End" style="ellipse;whiteSpace=wrap;html=1;fillColor=#f8cecc;strokeColor=#b85450;" vertex="1" parent="1">
          <mxGeometry x="460" y="1220" width="120" height="80" as="geometry" />
        </mxCell>
        <mxCell id="spTVyyW4fHagzauWtHll-44" value="" style="edgeStyle=orthogonalEdgeStyle;rounded=0;orthogonalLoop=1;jettySize=auto;html=1;entryX=0.5;entryY=0;entryDx=0;entryDy=0;" edge="1" parent="1" source="spTVyyW4fHagzauWtHll-39" target="spTVyyW4fHagzauWtHll-43">
          <mxGeometry relative="1" as="geometry">
            <mxPoint x="160" y="40" as="targetPoint" />
          </mxGeometry>
        </mxCell>
        <mxCell id="spTVyyW4fHagzauWtHll-39" value="Add picture" style="whiteSpace=wrap;html=1;rounded=1;fillColor=#dae8fc;strokeColor=#6c8ebf;" vertex="1" parent="1">
          <mxGeometry x="100" y="-60" width="120" height="60" as="geometry" />
        </mxCell>
        <mxCell id="spTVyyW4fHagzauWtHll-46" value="" style="edgeStyle=orthogonalEdgeStyle;rounded=0;orthogonalLoop=1;jettySize=auto;html=1;" edge="1" parent="1" source="spTVyyW4fHagzauWtHll-43" target="spTVyyW4fHagzauWtHll-45">
          <mxGeometry relative="1" as="geometry" />
        </mxCell>
        <mxCell id="spTVyyW4fHagzauWtHll-43" value="Add headline" style="rounded=1;whiteSpace=wrap;html=1;fillColor=#dae8fc;strokeColor=#6c8ebf;" vertex="1" parent="1">
          <mxGeometry x="100" y="50" width="120" height="60" as="geometry" />
        </mxCell>
        <mxCell id="spTVyyW4fHagzauWtHll-47" value="" style="edgeStyle=orthogonalEdgeStyle;rounded=0;orthogonalLoop=1;jettySize=auto;html=1;" edge="1" parent="1" source="spTVyyW4fHagzauWtHll-45" target="spTVyyW4fHagzauWtHll-6">
          <mxGeometry relative="1" as="geometry" />
        </mxCell>
        <mxCell id="spTVyyW4fHagzauWtHll-45" value="Add location" style="rounded=1;whiteSpace=wrap;html=1;fillColor=#dae8fc;strokeColor=#6c8ebf;" vertex="1" parent="1">
          <mxGeometry x="100" y="160" width="120" height="60" as="geometry" />
        </mxCell>
        <mxCell id="spTVyyW4fHagzauWtHll-48" value="1" style="text;html=1;align=center;verticalAlign=middle;resizable=0;points=[];autosize=1;strokeColor=none;fillColor=none;" vertex="1" parent="1">
          <mxGeometry x="130" y="-210" width="30" height="30" as="geometry" />
        </mxCell>
        <mxCell id="spTVyyW4fHagzauWtHll-49" value="2" style="text;html=1;align=center;verticalAlign=middle;resizable=0;points=[];autosize=1;strokeColor=none;fillColor=none;" vertex="1" parent="1">
          <mxGeometry x="130" y="-100" width="30" height="30" as="geometry" />
        </mxCell>
        <mxCell id="spTVyyW4fHagzauWtHll-50" value="3" style="text;html=1;align=center;verticalAlign=middle;resizable=0;points=[];autosize=1;strokeColor=none;fillColor=none;" vertex="1" parent="1">
          <mxGeometry x="130" y="8" width="30" height="30" as="geometry" />
        </mxCell>
        <mxCell id="spTVyyW4fHagzauWtHll-51" value="4" style="text;html=1;align=center;verticalAlign=middle;resizable=0;points=[];autosize=1;strokeColor=none;fillColor=none;" vertex="1" parent="1">
          <mxGeometry x="130" y="120" width="30" height="30" as="geometry" />
        </mxCell>
        <mxCell id="spTVyyW4fHagzauWtHll-52" value="5" style="text;html=1;align=center;verticalAlign=middle;resizable=0;points=[];autosize=1;strokeColor=none;fillColor=none;" vertex="1" parent="1">
          <mxGeometry x="130" y="238" width="30" height="30" as="geometry" />
        </mxCell>
        <mxCell id="spTVyyW4fHagzauWtHll-53" value="6" style="text;html=1;align=center;verticalAlign=middle;resizable=0;points=[];autosize=1;strokeColor=none;fillColor=none;" vertex="1" parent="1">
          <mxGeometry x="230" y="290" width="30" height="30" as="geometry" />
        </mxCell>
        <mxCell id="spTVyyW4fHagzauWtHll-54" value="7" style="text;html=1;align=center;verticalAlign=middle;resizable=0;points=[];autosize=1;strokeColor=none;fillColor=none;" vertex="1" parent="1">
          <mxGeometry x="160" y="360" width="30" height="30" as="geometry" />
        </mxCell>
        <mxCell id="spTVyyW4fHagzauWtHll-55" value="9" style="text;html=1;align=center;verticalAlign=middle;resizable=0;points=[];autosize=1;strokeColor=none;fillColor=none;" vertex="1" parent="1">
          <mxGeometry x="410" y="290" width="30" height="30" as="geometry" />
        </mxCell>
        <mxCell id="spTVyyW4fHagzauWtHll-56" value="8" style="text;html=1;align=center;verticalAlign=middle;resizable=0;points=[];autosize=1;strokeColor=none;fillColor=none;" vertex="1" parent="1">
          <mxGeometry x="300" y="400" width="30" height="30" as="geometry" />
        </mxCell>
        <mxCell id="spTVyyW4fHagzauWtHll-57" value="10" style="text;html=1;align=center;verticalAlign=middle;resizable=0;points=[];autosize=1;strokeColor=none;fillColor=none;" vertex="1" parent="1">
          <mxGeometry x="580" y="290" width="40" height="30" as="geometry" />
        </mxCell>
        <mxCell id="spTVyyW4fHagzauWtHll-58" value="11" style="text;html=1;align=center;verticalAlign=middle;resizable=0;points=[];autosize=1;strokeColor=none;fillColor=none;" vertex="1" parent="1">
          <mxGeometry x="520" y="370" width="40" height="30" as="geometry" />
        </mxCell>
        <mxCell id="spTVyyW4fHagzauWtHll-59" value="12" style="text;html=1;align=center;verticalAlign=middle;resizable=0;points=[];autosize=1;strokeColor=none;fillColor=none;" vertex="1" parent="1">
          <mxGeometry x="520" y="478" width="40" height="30" as="geometry" />
        </mxCell>
        <mxCell id="spTVyyW4fHagzauWtHll-60" value="13" style="text;html=1;align=center;verticalAlign=middle;resizable=0;points=[];autosize=1;strokeColor=none;fillColor=none;" vertex="1" parent="1">
          <mxGeometry x="520" y="590" width="40" height="30" as="geometry" />
        </mxCell>
        <mxCell id="spTVyyW4fHagzauWtHll-61" value="14" style="text;html=1;align=center;verticalAlign=middle;resizable=0;points=[];autosize=1;strokeColor=none;fillColor=none;" vertex="1" parent="1">
          <mxGeometry x="580" y="638" width="40" height="30" as="geometry" />
        </mxCell>
        <mxCell id="spTVyyW4fHagzauWtHll-62" value="15" style="text;html=1;align=center;verticalAlign=middle;resizable=0;points=[];autosize=1;strokeColor=none;fillColor=none;" vertex="1" parent="1">
          <mxGeometry x="650" y="718" width="40" height="30" as="geometry" />
        </mxCell>
        <mxCell id="spTVyyW4fHagzauWtHll-63" value="16" style="text;html=1;align=center;verticalAlign=middle;resizable=0;points=[];autosize=1;strokeColor=none;fillColor=none;" vertex="1" parent="1">
          <mxGeometry x="520" y="718" width="40" height="30" as="geometry" />
        </mxCell>
        <mxCell id="spTVyyW4fHagzauWtHll-64" value="17" style="text;html=1;align=center;verticalAlign=middle;resizable=0;points=[];autosize=1;strokeColor=none;fillColor=none;" vertex="1" parent="1">
          <mxGeometry x="520" y="830" width="40" height="30" as="geometry" />
        </mxCell>
        <mxCell id="spTVyyW4fHagzauWtHll-65" value="18" style="text;html=1;align=center;verticalAlign=middle;resizable=0;points=[];autosize=1;strokeColor=none;fillColor=none;" vertex="1" parent="1">
          <mxGeometry x="520" y="938" width="40" height="30" as="geometry" />
        </mxCell>
        <mxCell id="spTVyyW4fHagzauWtHll-66" value="19" style="text;html=1;align=center;verticalAlign=middle;resizable=0;points=[];autosize=1;strokeColor=none;fillColor=none;" vertex="1" parent="1">
          <mxGeometry x="600" y="988" width="40" height="30" as="geometry" />
        </mxCell>
        <mxCell id="spTVyyW4fHagzauWtHll-67" value="20" style="text;html=1;align=center;verticalAlign=middle;resizable=0;points=[];autosize=1;strokeColor=none;fillColor=none;" vertex="1" parent="1">
          <mxGeometry x="520" y="1070" width="40" height="30" as="geometry" />
        </mxCell>
        <mxCell id="spTVyyW4fHagzauWtHll-68" value="21" style="text;html=1;align=center;verticalAlign=middle;resizable=0;points=[];autosize=1;strokeColor=none;fillColor=none;" vertex="1" parent="1">
          <mxGeometry x="520" y="1180" width="40" height="30" as="geometry" />
        </mxCell>
        <mxCell id="spTVyyW4fHagzauWtHll-69" value="Yes" style="text;html=1;align=center;verticalAlign=middle;resizable=0;points=[];autosize=1;strokeColor=none;fillColor=none;" vertex="1" parent="1">
          <mxGeometry x="120" y="358" width="40" height="30" as="geometry" />
        </mxCell>
        <mxCell id="spTVyyW4fHagzauWtHll-70" value="No" style="text;html=1;align=center;verticalAlign=middle;resizable=0;points=[];autosize=1;strokeColor=none;fillColor=none;" vertex="1" parent="1">
          <mxGeometry x="225" y="320" width="40" height="30" as="geometry" />
        </mxCell>
        <mxCell id="spTVyyW4fHagzauWtHll-71" value="Yes" style="text;html=1;align=center;verticalAlign=middle;resizable=0;points=[];autosize=1;strokeColor=none;fillColor=none;" vertex="1" parent="1">
          <mxGeometry x="480" y="370" width="40" height="30" as="geometry" />
        </mxCell>
        <mxCell id="spTVyyW4fHagzauWtHll-72" value="No" style="text;html=1;align=center;verticalAlign=middle;resizable=0;points=[];autosize=1;strokeColor=none;fillColor=none;" vertex="1" parent="1">
          <mxGeometry x="580" y="320" width="40" height="30" as="geometry" />
        </mxCell>
        <mxCell id="spTVyyW4fHagzauWtHll-73" value="Yes" style="text;html=1;align=center;verticalAlign=middle;resizable=0;points=[];autosize=1;strokeColor=none;fillColor=none;" vertex="1" parent="1">
          <mxGeometry x="480" y="710" width="40" height="30" as="geometry" />
        </mxCell>
        <mxCell id="spTVyyW4fHagzauWtHll-74" value="No" style="text;html=1;align=center;verticalAlign=middle;resizable=0;points=[];autosize=1;strokeColor=none;fillColor=none;" vertex="1" parent="1">
          <mxGeometry x="580" y="668" width="40" height="30" as="geometry" />
        </mxCell>
        <mxCell id="spTVyyW4fHagzauWtHll-75" value="Yes" style="text;html=1;align=center;verticalAlign=middle;resizable=0;points=[];autosize=1;strokeColor=none;fillColor=none;" vertex="1" parent="1">
          <mxGeometry x="480" y="1070" width="40" height="30" as="geometry" />
        </mxCell>
        <mxCell id="spTVyyW4fHagzauWtHll-76" value="No" style="text;html=1;align=center;verticalAlign=middle;resizable=0;points=[];autosize=1;strokeColor=none;fillColor=none;" vertex="1" parent="1">
          <mxGeometry x="590" y="1018" width="40" height="30" as="geometry" />
        </mxCell>
      </root>
    </mxGraphModel>
  </diagram>
</mxfile>
